<?xml version="1.0" encoding="UTF-8"?>
<svg id="Layer_1" xmlns="http://www.w3.org/2000/svg" viewBox="0 0 666.95 194.86">
  <defs>
    <style>
      .cls-1 {
        fill: #2b2d61;
      }

      .cls-2 {
        fill: #fff;
      }
    </style>
  </defs>
  <rect class="cls-1" width="194.86" height="194.86"/>
  <g>
    <path class="cls-2" d="M47.97,83.7c2.65,1.49,4.72,3.68,6.21,6.58,1.49,2.9,2.23,6.38,2.23,10.44v26.4h-11.37v-24.86c0-3.57-.89-6.32-2.68-8.25-1.79-1.92-4.22-2.88-7.31-2.88s-5.62.96-7.43,2.88c-1.82,1.92-2.72,4.67-2.72,8.25v24.86h-11.37v-60.12h11.37v20.72c1.46-1.95,3.41-3.48,5.85-4.59,2.44-1.11,5.14-1.67,8.12-1.67,3.41,0,6.44.75,9.1,2.23Z"/>
    <path class="cls-2" d="M68.85,125.86c-2.92-1.33-5.24-3.13-6.95-5.4-1.71-2.28-2.64-4.79-2.8-7.56h11.45c.22,1.73,1.07,3.17,2.56,4.31,1.49,1.14,3.34,1.71,5.56,1.71s3.86-.43,5.08-1.3c1.22-.87,1.83-1.98,1.83-3.33,0-1.46-.75-2.56-2.23-3.29-1.49-.73-3.86-1.53-7.11-2.4-3.36-.81-6.11-1.65-8.25-2.52-2.14-.87-3.98-2.19-5.52-3.98-1.54-1.79-2.32-4.2-2.32-7.23,0-2.49.72-4.77,2.15-6.82,1.43-2.06,3.49-3.68,6.17-4.87,2.68-1.19,5.84-1.79,9.46-1.79,5.36,0,9.64,1.34,12.84,4.02,3.19,2.68,4.96,6.3,5.28,10.84h-10.89c-.16-1.79-.91-3.21-2.23-4.26-1.33-1.06-3.1-1.58-5.32-1.58-2.06,0-3.64.38-4.75,1.14-1.11.76-1.67,1.82-1.67,3.17,0,1.52.76,2.67,2.27,3.45,1.52.79,3.87,1.58,7.07,2.4,3.25.81,5.93,1.65,8.04,2.52,2.11.87,3.94,2.21,5.48,4.02,1.54,1.82,2.34,4.21,2.4,7.19,0,2.6-.72,4.93-2.15,6.99-1.44,2.06-3.49,3.67-6.17,4.83-2.68,1.16-5.81,1.75-9.38,1.75s-6.99-.66-9.91-1.99Z"/>
    <path class="cls-2" d="M99.92,92.35c1.81-3.52,4.29-6.23,7.43-8.12,3.14-1.9,6.63-2.84,10.48-2.84,2.92,0,5.71.64,8.37,1.91,2.65,1.27,4.77,2.97,6.34,5.08v-21.37h11.54v60.12h-11.54v-6.66c-1.41,2.22-3.39,4.01-5.93,5.36-2.55,1.35-5.5,2.03-8.86,2.03-3.79,0-7.26-.98-10.4-2.92-3.14-1.95-5.62-4.7-7.43-8.25-1.82-3.55-2.72-7.62-2.72-12.23s.91-8.58,2.72-12.1ZM130.99,97.51c-1.08-1.98-2.55-3.49-4.39-4.55-1.84-1.06-3.82-1.58-5.93-1.58s-4.06.52-5.85,1.54c-1.79,1.03-3.24,2.53-4.35,4.51-1.11,1.98-1.67,4.32-1.67,7.03s.55,5.08,1.67,7.11c1.11,2.03,2.57,3.59,4.39,4.67,1.81,1.08,3.75,1.62,5.81,1.62s4.09-.53,5.93-1.58c1.84-1.06,3.3-2.57,4.39-4.55,1.08-1.98,1.62-4.35,1.62-7.11s-.54-5.13-1.62-7.11Z"/>
    <path class="cls-2" d="M156.83,125.86c-2.92-1.33-5.24-3.13-6.95-5.4-1.71-2.28-2.64-4.79-2.8-7.56h11.45c.22,1.73,1.07,3.17,2.56,4.31,1.49,1.14,3.34,1.71,5.56,1.71s3.86-.43,5.08-1.3c1.22-.87,1.83-1.98,1.83-3.33,0-1.46-.75-2.56-2.23-3.29-1.49-.73-3.86-1.53-7.11-2.4-3.36-.81-6.11-1.65-8.25-2.52-2.14-.87-3.98-2.19-5.52-3.98-1.54-1.79-2.32-4.2-2.32-7.23,0-2.49.72-4.77,2.15-6.82,1.43-2.06,3.49-3.68,6.17-4.87,2.68-1.19,5.84-1.79,9.46-1.79,5.36,0,9.64,1.34,12.84,4.02,3.19,2.68,4.96,6.3,5.28,10.84h-10.89c-.16-1.79-.91-3.21-2.23-4.26-1.33-1.06-3.1-1.58-5.32-1.58-2.06,0-3.64.38-4.75,1.14-1.11.76-1.67,1.82-1.67,3.17,0,1.52.76,2.67,2.27,3.45,1.52.79,3.87,1.58,7.07,2.4,3.25.81,5.93,1.65,8.04,2.52,2.11.87,3.94,2.21,5.48,4.02,1.54,1.82,2.34,4.21,2.4,7.19,0,2.6-.72,4.93-2.15,6.99-1.44,2.06-3.49,3.67-6.17,4.83-2.68,1.16-5.81,1.75-9.38,1.75s-6.99-.66-9.91-1.99Z"/>
  </g>
  <g>
    <path d="M254.52,47.81v39.37h-5.43v-18.13h-21.17v18.13h-5.43v-39.37h5.43v16.64h21.17v-16.64h5.43Z"/>
    <path d="M267.35,74.54c.54,5.19,4.06,8.59,9.66,8.59,4.29,0,6.74-2.03,7.99-3.7l3.22,2.92c-2.62,3.46-6.8,5.19-11.63,5.19-9.01,0-14.67-5.79-14.67-14.37s5.43-14.49,13.96-14.49,12.82,5.79,12.82,13.18c0,1.67-.24,2.68-.24,2.68h-21.11ZM267.47,70.78h15.87c-.06-4.65-2.98-7.7-7.46-7.7s-7.63,3.16-8.41,7.7Z"/>
    <path d="M311.01,59.15l-1.31,5.31c-.6-.36-1.43-.66-2.62-.66-3.16,0-6.74,2.8-6.74,8.65v14.73h-5.25v-28.15l3.7-.18c.48,2.15.72,5.31.72,6.56h.24c1.07-3.7,3.46-6.74,7.63-6.74,1.25,0,2.56.18,3.64.48Z"/>
    <path d="M318.35,53.42c-2.03,0-3.64-1.49-3.64-3.52s1.61-3.58,3.64-3.58,3.7,1.55,3.7,3.58-1.67,3.52-3.7,3.52ZM315.54,59.03l5.31-.18v28.33h-5.31v-28.15Z"/>
    <path d="M348.53,85.69s-2.8,1.85-7.4,1.85c-7.28,0-10.2-3.88-10.2-11.09v-13.18h-4.47v-4.24h4.47v-8.35l5.31-.3v8.65h10.92v4.24h-10.92v13c0,4.53,1.61,6.8,5.43,6.8,3.28,0,5.19-1.61,5.19-1.61l1.67,4.23Z"/>
    <path d="M382.59,87.12s-1.37.36-2.86.36c-2.92,0-5.07-1.37-5.07-4.65v-1.01h-.12c-1.79,3.34-5.13,5.73-10.14,5.73-7.93,0-13.42-5.79-13.42-14.49s5.49-14.37,13.72-14.37c5.37,0,8.89,2.92,10.38,6.74h.06c-.06-1.13.3-4.47.72-6.38h3.7v21.65c0,1.55.42,2.15,1.73,2.15.36,0,.78-.06,1.01-.12l.3,4.41ZM374.3,73.64v-1.13c0-4.24-2.8-9.42-9.31-9.42-5.25,0-8.65,4-8.65,9.96s3.46,10.08,9.01,10.08c5.96,0,8.95-5.31,8.95-9.48Z"/>
    <path d="M415.58,59.03v28.03c0,7.52-5.13,12.64-14.49,12.64-6.8,0-10.26-2.09-12.11-3.28l2.45-4.17c2.39,1.85,5.67,3.04,9.66,3.04,6.08,0,9.25-2.92,9.25-8.23v-4.83c-1.85,3.1-5.13,5.31-9.9,5.31-7.93,0-13.42-5.79-13.42-14.49s5.49-14.37,13.72-14.37c5.37,0,8.89,2.92,10.38,6.74h.06c-.06-1.13.3-4.47.72-6.38h3.7ZM410.33,73.64v-1.13c0-4.24-2.8-9.42-9.31-9.42-5.25,0-8.65,4-8.65,9.96s3.46,10.08,9.01,10.08c5.96,0,8.95-5.31,8.95-9.48Z"/>
    <path d="M427.51,74.54c.54,5.19,4.06,8.59,9.66,8.59,4.29,0,6.74-2.03,7.99-3.7l3.22,2.92c-2.62,3.46-6.8,5.19-11.63,5.19-9.01,0-14.67-5.79-14.67-14.37s5.43-14.49,13.96-14.49,12.82,5.79,12.82,13.18c0,1.67-.24,2.68-.24,2.68h-21.11ZM427.63,70.78h15.87c-.06-4.65-2.98-7.7-7.46-7.7s-7.63,3.16-8.41,7.7Z"/>
    <path d="M480.9,52.23c-4.59,0-7.58,2.21-7.58,5.96,0,8.35,21.53,4.12,21.53,18.85,0,6.32-5.55,10.5-14.02,10.5-7.04,0-12.11-2.62-14.49-4.65l3.4-4.23c1.61,1.43,5.13,4.12,11.09,4.12,5.43,0,8.65-2.21,8.65-5.73,0-10.5-21.65-5.37-21.65-18.79,0-6.44,5.37-10.8,13.06-10.8,10.68,0,13,6.8,13.72,9.6l-5.07,1.25c-.36-2.09-2.51-6.08-8.65-6.08Z"/>
    <path d="M525.81,68.27c0,1.19-.18,1.91-.18,1.91l-4.89.36c.06-.3.12-.83.12-1.49,0-3.46-2.5-5.96-6.74-5.96-5.31,0-8.89,4-8.89,10.08s3.4,9.96,9.36,9.96c5.31,0,7.58-2.45,8.65-3.76l3.1,3.34c-2.62,3.16-6.86,4.83-11.93,4.83-8.77,0-14.55-5.79-14.55-14.25s5.85-14.61,14.14-14.61c7.22,0,11.81,4.23,11.81,9.6Z"/>
    <path d="M535.3,53.42c-2.03,0-3.64-1.49-3.64-3.52s1.61-3.58,3.64-3.58,3.7,1.55,3.7,3.58-1.67,3.52-3.7,3.52ZM532.5,59.03l5.31-.18v28.33h-5.31v-28.15Z"/>
    <path d="M549.79,74.54c.54,5.19,4.06,8.59,9.66,8.59,4.29,0,6.74-2.03,7.99-3.7l3.22,2.92c-2.62,3.46-6.8,5.19-11.63,5.19-9.01,0-14.67-5.79-14.67-14.37s5.43-14.49,13.96-14.49,12.82,5.79,12.82,13.18c0,1.67-.24,2.68-.24,2.68h-21.11ZM549.91,70.78h15.87c-.06-4.65-2.98-7.7-7.46-7.7s-7.63,3.16-8.41,7.7Z"/>
    <path d="M603.12,69.94v17.24h-5.31v-17.24c0-4.12-2.33-6.86-6.56-6.86-5.85,0-8.47,5.31-8.47,9.37v14.73h-5.25v-28.15l3.7-.18c.48,2.15.72,5.31.72,6.56h.18c1.49-3.52,4.65-6.74,10.02-6.74,6.74,0,10.98,4.53,10.98,11.27Z"/>
    <path d="M635.21,68.27c0,1.19-.18,1.91-.18,1.91l-4.89.36c.06-.3.12-.83.12-1.49,0-3.46-2.5-5.96-6.74-5.96-5.31,0-8.89,4-8.89,10.08s3.4,9.96,9.36,9.96c5.31,0,7.58-2.45,8.65-3.76l3.1,3.34c-2.62,3.16-6.86,4.83-11.93,4.83-8.77,0-14.55-5.79-14.55-14.25s5.85-14.61,14.14-14.61c7.22,0,11.81,4.23,11.81,9.6Z"/>
    <path d="M645.59,74.54c.54,5.19,4.06,8.59,9.66,8.59,4.29,0,6.74-2.03,7.99-3.7l3.22,2.92c-2.62,3.46-6.8,5.19-11.63,5.19-9.01,0-14.67-5.79-14.67-14.37s5.43-14.49,13.96-14.49,12.82,5.79,12.82,13.18c0,1.67-.24,2.68-.24,2.68h-21.11ZM645.71,70.78h15.87c-.06-4.65-2.98-7.7-7.46-7.7s-7.63,3.16-8.41,7.7Z"/>
    <path d="M254.58,128.5c0,13.72-7.28,19.68-18.13,19.68h-13.96v-39.37h11.93c12.88,0,20.16,7.34,20.16,19.68ZM249.09,128.5c0-10.08-5.31-15.09-14.73-15.09h-6.44v30.18h8.47c7.34,0,12.7-4.53,12.7-15.09Z"/>
    <path d="M291.44,148.12s-1.37.36-2.86.36c-2.92,0-5.07-1.37-5.07-4.65v-1.01h-.12c-1.79,3.34-5.13,5.73-10.14,5.73-7.93,0-13.42-5.79-13.42-14.49s5.49-14.37,13.72-14.37c5.37,0,8.89,2.92,10.38,6.74h.06c-.06-1.13.3-4.47.72-6.38h3.7v21.65c0,1.55.42,2.15,1.73,2.15.36,0,.78-.06,1.01-.12l.3,4.41ZM283.15,134.64v-1.13c0-4.24-2.8-9.42-9.31-9.42-5.25,0-8.65,4-8.65,9.96s3.46,10.08,9.01,10.08c5.96,0,8.95-5.31,8.95-9.48Z"/>
    <path d="M316.68,146.69s-2.8,1.85-7.4,1.85c-7.28,0-10.2-3.88-10.2-11.09v-13.18h-4.47v-4.24h4.47v-8.35l5.31-.3v8.65h10.92v4.24h-10.92v13c0,4.53,1.61,6.8,5.43,6.8,3.28,0,5.19-1.61,5.19-1.61l1.67,4.23Z"/>
    <path d="M350.74,148.12s-1.37.36-2.86.36c-2.92,0-5.07-1.37-5.07-4.65v-1.01h-.12c-1.79,3.34-5.13,5.73-10.14,5.73-7.93,0-13.42-5.79-13.42-14.49s5.49-14.37,13.72-14.37c5.37,0,8.89,2.92,10.38,6.74h.06c-.06-1.13.3-4.47.72-6.38h3.7v21.65c0,1.55.42,2.15,1.73,2.15.36,0,.78-.06,1.01-.12l.3,4.41ZM342.45,134.64v-1.13c0-4.24-2.8-9.42-9.31-9.42-5.25,0-8.65,4-8.65,9.96s3.46,10.08,9.01,10.08c5.96,0,8.95-5.31,8.95-9.48Z"/>
    <path d="M382.47,113.23c-4.59,0-7.58,2.21-7.58,5.96,0,8.35,21.53,4.12,21.53,18.85,0,6.32-5.55,10.5-14.02,10.5-7.04,0-12.11-2.62-14.49-4.65l3.4-4.23c1.61,1.43,5.13,4.12,11.09,4.12,5.43,0,8.65-2.21,8.65-5.73,0-10.5-21.65-5.37-21.65-18.79,0-6.44,5.37-10.8,13.06-10.8,10.68,0,13,6.8,13.72,9.6l-5.07,1.25c-.36-2.09-2.51-6.08-8.65-6.08Z"/>
    <path d="M406.93,135.54c.54,5.19,4.06,8.59,9.66,8.59,4.29,0,6.74-2.03,7.99-3.7l3.22,2.92c-2.62,3.46-6.8,5.19-11.63,5.19-9.01,0-14.67-5.79-14.67-14.37s5.43-14.49,13.96-14.49,12.82,5.79,12.82,13.18c0,1.67-.24,2.68-.24,2.68h-21.11ZM407.05,131.78h15.87c-.06-4.65-2.98-7.7-7.46-7.7s-7.63,3.16-8.41,7.7Z"/>
    <path d="M450.6,120.15l-1.31,5.31c-.6-.36-1.43-.66-2.62-.66-3.16,0-6.74,2.8-6.74,8.65v14.73h-5.25v-28.15l3.7-.18c.48,2.15.72,5.31.72,6.56h.24c1.07-3.7,3.46-6.74,7.63-6.74,1.25,0,2.56.18,3.64.48Z"/>
    <path d="M480.72,120.03l-11.51,28.15h-5.73l-11.63-28.15h5.9l7.75,19.68c.6,1.43.72,1.91.95,3.1h.12c.24-1.31.42-1.85.89-3.1l7.87-19.68h5.37Z"/>
    <path d="M488.65,114.42c-2.03,0-3.64-1.49-3.64-3.52s1.61-3.58,3.64-3.58,3.7,1.55,3.7,3.58-1.67,3.52-3.7,3.52ZM485.85,120.03l5.31-.18v28.33h-5.31v-28.15Z"/>
    <path d="M523.61,129.27c0,1.19-.18,1.91-.18,1.91l-4.89.36c.06-.3.12-.83.12-1.49,0-3.46-2.5-5.96-6.74-5.96-5.31,0-8.89,4-8.89,10.08s3.4,9.96,9.36,9.96c5.31,0,7.58-2.45,8.65-3.76l3.1,3.34c-2.62,3.16-6.86,4.83-11.93,4.83-8.77,0-14.55-5.79-14.55-14.25s5.85-14.61,14.14-14.61c7.22,0,11.81,4.23,11.81,9.6Z"/>
    <path d="M533.99,135.54c.54,5.19,4.06,8.59,9.66,8.59,4.29,0,6.74-2.03,7.99-3.7l3.22,2.92c-2.62,3.46-6.8,5.19-11.63,5.19-9.01,0-14.67-5.79-14.67-14.37s5.43-14.49,13.96-14.49,12.82,5.79,12.82,13.18c0,1.67-.24,2.68-.24,2.68h-21.11ZM534.11,131.78h15.87c-.06-4.65-2.98-7.7-7.46-7.7s-7.63,3.16-8.41,7.7Z"/>
  </g>
</svg>